HIERARCHY
ROOT joint_Root
{
	OFFSET 0.0 0.0 0.0
	CHANNELS 6 Xposition Yposition Zposition Zrotation Xrotation Yrotation 
	JOINT Hips
	{
		OFFSET -17.1583 93.1646 452.98
		CHANNELS 6 Xposition Yposition Zposition Zrotation Xrotation Yrotation 
		JOINT Spine
		{
			OFFSET 15.7357 0.0 0.0
			CHANNELS 6 Xposition Yposition Zposition Zrotation Xrotation Yrotation 
			JOINT Chest
			{
				OFFSET 8.98455 -0.406207 0.0
				CHANNELS 6 Xposition Yposition Zposition Zrotation Xrotation Yrotation 
				JOINT Neck
				{
					OFFSET 16.3773 0.0 0.0
					CHANNELS 6 Xposition Yposition Zposition Zrotation Xrotation Yrotation 
					JOINT Head
					{
						OFFSET 6.45672 0.0 0.0
						CHANNELS 6 Xposition Yposition Zposition Zrotation Xrotation Yrotation 
						End Site
						{
							OFFSET 0.0 0.0 0.0
						}
					}
				}
				JOINT Shoulder_L
				{
					OFFSET 12.9942 -0.242716 4.98039
					CHANNELS 6 Xposition Yposition Zposition Zrotation Xrotation Yrotation 
					JOINT UpperArm_L
					{
						OFFSET 5.34809 0.0 0.0
						CHANNELS 6 Xposition Yposition Zposition Zrotation Xrotation Yrotation 
						JOINT LowerArm_L
						{
							OFFSET 24.3286 1.87007e-05 0.0
							CHANNELS 6 Xposition Yposition Zposition Zrotation Xrotation Yrotation 
							JOINT Hand_L
							{
								OFFSET 22.2916 0.0 0.0
								CHANNELS 6 Xposition Yposition Zposition Zrotation Xrotation Yrotation 
								End Site
								{
									OFFSET 0.0 0.0 0.0
								}
							}
						}
					}
				}
				JOINT Shoulder_R
				{
					OFFSET 12.9945 -0.242716 -4.98039
					CHANNELS 6 Xposition Yposition Zposition Zrotation Xrotation Yrotation 
					JOINT UpperArm_R
					{
						OFFSET -5.34813 0.0 0.0
						CHANNELS 6 Xposition Yposition Zposition Zrotation Xrotation Yrotation 
						JOINT LowerArm_R
						{
							OFFSET -24.3289 0.000322201 0.0
							CHANNELS 6 Xposition Yposition Zposition Zrotation Xrotation Yrotation 
							JOINT Hand_R
							{
								OFFSET -22.2915 -0.000108084 0.0
								CHANNELS 6 Xposition Yposition Zposition Zrotation Xrotation Yrotation 
								End Site
								{
									OFFSET 0.0 0.0 0.0
								}
							}
						}
					}
				}
			}
		}
		JOINT UpperLeg_L
		{
			OFFSET -2.19248 -6.46944 0.0
			CHANNELS 6 Xposition Yposition Zposition Zrotation Xrotation Yrotation 
			JOINT LowerLeg_L
			{
				OFFSET 39.0811 0.0 -1.23785e-05
				CHANNELS 6 Xposition Yposition Zposition Zrotation Xrotation Yrotation 
				JOINT Foot_L
				{
					OFFSET 40.9854 0.0 -1.26872e-05
					CHANNELS 6 Xposition Yposition Zposition Zrotation Xrotation Yrotation 
					JOINT Toes_L
					{
						OFFSET 11.7543 0.0 0.0
						CHANNELS 6 Xposition Yposition Zposition Zrotation Xrotation Yrotation 
						End Site
						{
							OFFSET 0.0 0.0 0.0
						}
					}
				}
			}
		}
		JOINT UpperLeg_R
		{
			OFFSET -2.19251 6.46944 0.0
			CHANNELS 6 Xposition Yposition Zposition Zrotation Xrotation Yrotation 
			JOINT LowerLeg_R
			{
				OFFSET -39.0811 -0.00228153 -0.0401928
				CHANNELS 6 Xposition Yposition Zposition Zrotation Xrotation Yrotation 
				JOINT Foot_R
				{
					OFFSET -40.9854 0.0 0.0
					CHANNELS 6 Xposition Yposition Zposition Zrotation Xrotation Yrotation 
					JOINT Toes_R
					{
						OFFSET -11.7543 0.0 0.0
						CHANNELS 6 Xposition Yposition Zposition Zrotation Xrotation Yrotation 
						End Site
						{
							OFFSET 0.0 0.0 0.0
						}
					}
				}
			}
		}
	}
}
MOTION
Frames:	7
Frame Time:	0.0333333
0.000000 0.000000 0.000000 0.000000 0.000000 -0.000000 0.922128 91.318300 8.386960 89.296400 0.992328 6.567990 15.735700 0.000005 -0.000001 -103.153000 89.173700 103.913000 8.984550 -0.406207 -0.000000 -9.376730 0.261092 1.546100 16.377300 -0.000001 -0.000001 -6.408030 0.075347 -0.370745 6.456720 -0.000001 -0.000000 -1.536080 1.518070 -2.157230 12.994200 -0.242716 4.980390 -88.058300 -3.809780 -62.967900 5.348090 -0.000007 -0.000001 -73.402500 -57.963900 -115.124000 24.328600 0.000019 0.000005 0.000044 -13.657900 0.000001 22.291600 -0.000001 0.000005 47.007300 4.213700 21.106200 12.994500 -0.242716 -4.980390 94.098200 -7.883980 -62.419600 -5.348130 -0.000001 -0.000004 -76.063200 -58.248900 -125.334000 -24.328900 0.000322 -0.000009 -0.001093 -31.199600 -0.000181 -22.291500 -0.000108 -0.000004 39.665300 5.439420 -4.265550 -2.192480 -6.469440 -0.000000 -174.644000 -6.001200 9.443840 39.081100 -0.000007 -0.000012 0.066185 -0.198283 18.458600 40.985400 -0.000006 -0.000013 1.587230 12.951100 -74.812100 11.754300 -0.000000 0.000003 -0.002763 0.205522 -8.237580 -2.192510 6.469440 -0.000001 173.413000 5.220970 -168.995000 -39.081100 -0.002282 -0.040193 -0.012205 0.054519 15.903700 -40.985400 0.000008 0.000006 -8.378220 6.419650 -74.397000 -11.754300 -0.000006 -0.000006 -0.012662 0.290224 -4.776450
0.000000 0.000000 0.000000 0.000000 0.000000 -0.000000 0.918675 91.321900 8.377360 89.281900 0.931896 6.487440 15.735700 0.000005 -0.000001 -103.407000 89.181000 104.159000 8.984550 -0.406207 -0.000000 -9.360800 0.266138 1.529880 16.377300 -0.000001 -0.000001 -6.385800 0.082271 -0.361664 6.456720 -0.000001 -0.000000 -1.593080 1.514300 -2.079960 12.994200 -0.242716 4.980390 -88.065200 -3.790820 -62.934300 5.348090 -0.000007 -0.000001 -73.268900 -57.871500 -115.055000 24.328600 0.000019 0.000005 0.000043 -13.432200 0.000001 22.291600 -0.000001 0.000005 46.993600 4.206500 21.214400 12.994500 -0.242716 -4.980390 94.085900 -7.855350 -62.405600 -5.348130 -0.000001 -0.000004 -76.002500 -58.242000 -125.282000 -24.328900 0.000322 -0.000009 -0.001094 -31.286900 -0.000181 -22.291500 -0.000108 -0.000004 39.519000 5.435860 -4.141140 -2.192480 -6.469440 -0.000000 -174.612000 -6.092300 9.367410 39.081100 -0.000007 -0.000012 0.063308 -0.189838 18.442800 40.985400 -0.000006 -0.000013 1.583670 12.981800 -74.749100 11.754300 -0.000000 0.000003 -0.002662 0.204342 -8.285590 -2.192510 6.469440 -0.000001 173.452000 5.158360 -169.110000 -39.081100 -0.002282 -0.040193 -0.010201 0.047412 15.926800 -40.985400 0.000008 0.000006 -8.435240 6.430220 -74.387700 -11.754300 -0.000006 -0.000006 -0.012823 0.291314 -4.731800
0.000000 0.000000 0.000000 0.000000 0.000000 -0.000000 0.918990 91.338200 8.365380 89.284000 0.854761 6.426000 15.735700 0.000005 -0.000001 -103.399000 89.191000 104.146000 8.984550 -0.406207 -0.000000 -9.341360 0.262245 1.518800 16.377300 -0.000001 -0.000001 -6.378560 0.099491 -0.342626 6.456720 -0.000001 -0.000000 -1.627710 1.570970 -2.083730 12.994200 -0.242716 4.980390 -88.079600 -3.761820 -62.930700 5.348090 -0.000007 -0.000001 -73.132600 -57.858800 -114.908000 24.328600 0.000019 0.000005 0.000042 -13.102000 0.000001 22.291600 -0.000001 0.000005 46.968500 4.205000 21.236900 12.994500 -0.242716 -4.980390 94.086800 -7.843730 -62.366000 -5.348130 -0.000001 -0.000004 -75.862500 -58.167400 -125.159000 -24.328900 0.000322 -0.000009 -0.001093 -31.243300 -0.000181 -22.291500 -0.000108 -0.000004 39.648900 5.435150 -4.116820 -2.192480 -6.469440 -0.000000 -174.633000 -6.138060 9.370320 39.081100 -0.000007 -0.000012 0.065203 -0.196776 18.333100 40.985400 -0.000006 -0.000013 1.567150 12.936300 -74.779800 11.754300 -0.000000 0.000003 -0.002781 0.205733 -8.229000 -2.192510 6.469440 -0.000001 173.438000 5.160410 -169.139000 -39.081100 -0.002282 -0.040193 -0.011690 0.053027 15.814200 -40.985400 0.000008 0.000006 -8.476020 6.505790 -74.283600 -11.754300 -0.000006 -0.000006 -0.012731 0.290688 -4.757460
0.000000 0.000000 0.000000 0.000000 0.000000 -0.000000 0.907386 91.352400 8.333820 89.266900 0.781629 6.289980 15.735700 0.000005 -0.000001 -103.265000 89.177100 104.001000 8.984550 -0.406207 -0.000000 -9.369350 0.266315 1.498220 16.377300 -0.000001 -0.000001 -6.389410 0.103422 -0.333802 6.456720 -0.000001 -0.000000 -1.592470 1.565550 -1.984060 12.994200 -0.242716 4.980390 -88.084500 -3.753180 -62.935900 5.348090 -0.000007 -0.000001 -72.945900 -57.871600 -114.725000 24.328600 0.000019 0.000005 0.000044 -13.230700 0.000001 22.291600 -0.000001 0.000005 47.011800 4.212860 21.118800 12.994500 -0.242716 -4.980390 94.072400 -7.824580 -62.391800 -5.348130 -0.000001 -0.000004 -75.892400 -58.132000 -125.083000 -24.328900 0.000322 -0.000009 -0.001092 -31.033300 -0.000179 -22.291500 -0.000108 -0.000004 39.523200 5.427480 -3.852950 -2.192480 -6.469440 -0.000000 -174.637000 -6.133910 9.243050 39.081100 -0.000007 -0.000012 0.062971 -0.190754 18.268900 40.985400 -0.000006 -0.000013 1.535580 12.868700 -74.677100 11.754300 -0.000000 0.000003 -0.002624 0.203905 -8.303350 -2.192510 6.469440 -0.000001 173.479000 5.094310 -169.300000 -39.081100 -0.002282 -0.040193 -0.011186 0.051355 15.782200 -40.985400 0.000008 0.000006 -8.571260 6.539430 -74.229200 -11.754300 -0.000006 -0.000006 -0.012606 0.289843 -4.792060
0.000000 0.000000 0.000000 0.000000 0.000000 -0.000000 0.895855 91.363100 8.311780 89.244500 0.689741 6.238980 15.735700 0.000005 -0.000001 -104.148000 89.194700 104.887000 8.984550 -0.406207 -0.000000 -9.329160 0.282139 1.504470 16.377300 -0.000001 -0.000001 -6.372870 0.092352 -0.309355 6.456720 -0.000001 -0.000000 -1.621270 1.553790 -2.017690 12.994200 -0.242716 4.980390 -88.088900 -3.745530 -62.942100 5.348090 -0.000007 -0.000001 -73.286100 -57.782300 -114.933000 24.328600 0.000019 0.000005 0.000056 -13.227700 0.000001 22.291600 -0.000001 0.000005 47.042200 4.212310 21.127300 12.994500 -0.242716 -4.980390 94.066600 -7.809420 -62.380000 -5.348130 -0.000001 -0.000004 -75.749400 -58.128800 -124.931000 -24.328900 0.000322 -0.000009 -0.001090 -30.967400 -0.000179 -22.291500 -0.000108 -0.000004 39.598000 5.428650 -3.892660 -2.192480 -6.469440 -0.000000 -174.631000 -6.173520 9.216090 39.081100 -0.000007 -0.000012 0.066201 -0.201035 18.226800 40.985400 -0.000006 -0.000013 1.514450 12.799900 -74.691800 11.754300 -0.000000 0.000003 -0.002676 0.204516 -8.278510 -2.192510 6.469440 -0.000001 173.529000 5.054300 -169.362000 -39.081100 -0.002282 -0.040193 -0.011172 0.051482 15.731000 -40.985400 0.000008 0.000006 -8.472020 6.523790 -74.173200 -11.754300 -0.000006 -0.000006 -0.012387 0.288352 -4.853180
0.000000 0.000000 0.000000 0.000000 0.000000 -0.000000 0.872314 91.384600 8.285800 89.210300 0.616830 6.139530 15.735700 0.000005 -0.000001 -104.260000 89.188800 105.000000 8.984550 -0.406207 -0.000000 -9.339960 0.287840 1.507330 16.377300 -0.000001 -0.000001 -6.343690 0.111685 -0.328773 6.456720 -0.000001 -0.000000 -1.566470 1.528600 -1.974880 12.994200 -0.242716 4.980390 -88.100000 -3.726110 -62.957700 5.348090 -0.000007 -0.000001 -73.184100 -57.785300 -114.886000 24.328600 0.000019 0.000005 0.000044 -13.416500 0.000001 22.291600 -0.000001 0.000005 47.187100 4.203800 21.254900 12.994500 -0.242716 -4.980390 94.063600 -7.802900 -62.378100 -5.348130 -0.000001 -0.000004 -75.583800 -58.107900 -124.755000 -24.328900 0.000322 -0.000009 -0.001093 -31.169400 -0.000180 -22.291500 -0.000108 -0.000004 39.621100 5.432170 -4.013340 -2.192480 -6.469440 -0.000000 -174.609000 -6.156670 9.168220 39.081100 -0.000007 -0.000012 0.063976 -0.195680 18.104900 40.985400 -0.000006 -0.000013 1.464440 12.715900 -74.643600 11.754300 -0.000000 0.000003 -0.002625 0.203913 -8.303060 -2.192510 6.469440 -0.000001 173.569000 5.050750 -169.430000 -39.081100 -0.002282 -0.040193 -0.013051 0.058687 15.595300 -40.985400 0.000008 0.000006 -8.567680 6.567390 -74.052600 -11.754300 -0.000006 -0.000006 -0.012487 0.289034 -4.825220
0.000000 0.000000 0.000000 0.000000 0.000000 -0.000000 0.848293 91.390000 8.266620 89.186500 0.523803 6.046090 15.735700 0.000005 -0.000001 -103.950000 89.187800 104.692000 8.984550 -0.406207 -0.000000 -9.344060 0.279567 1.510330 16.377300 -0.000001 -0.000001 -6.276410 0.138002 -0.314406 6.456720 -0.000001 -0.000000 -1.532410 1.585500 -1.955780 12.994200 -0.242716 4.980390 -88.118500 -3.681880 -62.907200 5.348090 -0.000007 -0.000001 -73.198100 -57.756100 -114.940000 24.328600 0.000019 0.000005 0.000045 -13.427100 0.000001 22.291600 -0.000001 0.000005 47.173200 4.203150 21.264500 12.994500 -0.242716 -4.980390 94.061800 -7.795540 -62.366600 -5.348130 -0.000001 -0.000004 -75.418400 -58.036400 -124.586000 -24.328900 0.000322 -0.000009 -0.001094 -31.256800 -0.000181 -22.291500 -0.000108 -0.000004 39.524900 5.432330 -4.019200 -2.192480 -6.469440 -0.000000 -174.592000 -6.181940 9.072310 39.081100 -0.000007 -0.000012 0.063911 -0.195631 18.092000 40.985400 -0.000006 -0.000013 1.438680 12.661000 -74.578200 11.754300 -0.000000 0.000003 -0.002446 0.201793 -8.389310 -2.192510 6.469440 -0.000001 173.625000 5.045020 -169.570000 -39.081100 -0.002282 -0.040193 -0.010968 0.051143 15.618900 -40.985400 0.000008 0.000006 -8.478730 6.608520 -74.024400 -11.754300 -0.000006 -0.000006 -0.012486 0.289031 -4.825360
